<?xml version="1.0" encoding="utf-8"?>
<!-- Generator: Adobe Illustrator 16.0.0, SVG Export Plug-In . SVG Version: 6.00 Build 0)  -->
<!DOCTYPE svg PUBLIC "-//W3C//DTD SVG 1.1//EN" "http://www.w3.org/Graphics/SVG/1.1/DTD/svg11.dtd">
<svg version="1.1" id="Capa_1" xmlns="http://www.w3.org/2000/svg" xmlns:xlink="http://www.w3.org/1999/xlink" x="0px" y="0px"
	 width="47px" height="47px" viewBox="274.141 397.446 47 47" enable-background="new 274.141 397.446 47 47" xml:space="preserve">
<g>
	<g>
		<path fill="#416478" d="M299.036,427.964h-15.315c-0.35,0-0.635-0.283-0.635-0.635v-12.073h27.013v1.587
			c0,0.437,0.357,0.794,0.793,0.794c0.438,0,0.794-0.357,0.794-0.794v-5.72c0-1.224-0.999-2.222-2.222-2.222h-25.743
			c-1.23,0-2.222,0.998-2.222,2.222v16.206c0,1.225,0.999,2.223,2.222,2.223h15.322c0.437,0,0.794-0.357,0.794-0.794
			S299.479,427.964,299.036,427.964z M283.721,410.489h25.743c0.351,0,0.635,0.284,0.635,0.635v2.546H283.08v-2.546
			C283.08,410.773,283.37,410.489,283.721,410.489z"/>
		<path fill="#416478" d="M297.382,421.148c0-0.438-0.357-0.794-0.793-0.794h-9.535c-0.436,0-0.793,0.356-0.793,0.794
			c0,0.436,0.357,0.793,0.793,0.793h9.535C297.032,421.941,297.382,421.583,297.382,421.148z"/>
		<path fill="#416478" d="M287.053,423.197c-0.436,0-0.793,0.357-0.793,0.795c0,0.436,0.357,0.793,0.793,0.793h3.815
			c0.437,0,0.793-0.357,0.793-0.793c0-0.438-0.357-0.795-0.793-0.795H287.053z"/>
		<path fill="#416478" d="M286.961,419.064h9.535c0.437,0,0.793-0.356,0.793-0.792c0-0.437-0.357-0.794-0.793-0.794h-9.535
			c-0.437,0-0.793,0.357-0.793,0.794C286.167,418.707,286.518,419.064,286.961,419.064z"/>
		<path fill="#416478" d="M312.995,424.527h-1.164v-1.852c0-2.295-1.871-4.166-4.166-4.166s-4.166,1.871-4.166,4.166v1.852h-1.163
			c-0.437,0-0.794,0.357-0.794,0.793v6.877c0,0.437,0.357,0.793,0.794,0.793h10.652c0.437,0,0.794-0.356,0.794-0.793v-6.877
			C313.788,424.876,313.431,424.527,312.995,424.527z M305.087,422.668c0-1.422,1.156-2.579,2.578-2.579s2.579,1.157,2.579,2.579
			v1.852h-5.157V422.668L305.087,422.668z M312.201,431.397h-9.071v-5.29h9.064v5.29H312.201z"/>
	</g>
</g>
</svg>
