<?xml version="1.0" encoding="utf-8"?>
<!-- Generator: Adobe Illustrator 16.0.0, SVG Export Plug-In . SVG Version: 6.00 Build 0)  -->
<!DOCTYPE svg PUBLIC "-//W3C//DTD SVG 1.1//EN" "http://www.w3.org/Graphics/SVG/1.1/DTD/svg11.dtd">
<svg version="1.1" id="Capa_1" xmlns="http://www.w3.org/2000/svg" xmlns:xlink="http://www.w3.org/1999/xlink" x="0px" y="0px"
	 width="595.281px" height="841.891px" viewBox="0 0 595.281 841.891" enable-background="new 0 0 595.281 841.891"
	 xml:space="preserve">
<g>
	<g>
		<path fill="#416478" d="M323.367,550.379H40.97c-6.462,0-11.706-5.243-11.706-11.706v-222.65h498.099v29.264
			c0,8.048,6.584,14.632,14.631,14.632c8.049,0,14.633-6.584,14.633-14.632V239.813c0-22.558-18.412-40.97-40.971-40.97H40.97
			c-22.68,0-40.97,18.412-40.97,40.97v298.859c0,22.558,18.412,40.97,40.97,40.97h282.52c8.047,0,14.631-6.584,14.631-14.632
			S331.537,550.379,323.367,550.379z M40.97,228.108h474.686c6.463,0,11.707,5.243,11.707,11.705v46.944H29.142v-46.944
			C29.142,233.351,34.507,228.108,40.97,228.108z"/>
		<path fill="#416478" d="M292.884,424.665c0-8.048-6.584-14.632-14.632-14.632H102.424c-8.048,0-14.632,6.584-14.632,14.632
			s6.584,14.632,14.632,14.632h175.828C286.422,439.297,292.884,432.713,292.884,424.665z"/>
		<path fill="#416478" d="M102.424,462.465c-8.048,0-14.632,6.584-14.632,14.632s6.584,14.632,14.632,14.632h70.355
			c8.047,0,14.632-6.584,14.632-14.632s-6.584-14.632-14.632-14.632H102.424z"/>
		<path fill="#416478" d="M100.717,386.256h175.828c8.048,0,14.632-6.584,14.632-14.632s-6.584-14.632-14.632-14.632H100.717
			c-8.047,0-14.632,6.584-14.632,14.632S92.547,386.256,100.717,386.256z"/>
		<path fill="#416478" d="M580.769,486.972h-21.461v-34.141c0-42.312-34.506-76.818-76.818-76.818
			c-42.311,0-76.816,34.507-76.816,76.818v34.141h-21.461c-8.047,0-14.633,6.585-14.633,14.633v126.811
			c0,8.048,6.586,14.632,14.633,14.632h196.436c8.047,0,14.631-6.584,14.631-14.632V501.605
			C595.402,493.435,588.816,486.972,580.769,486.972z M434.937,452.71c0-26.216,21.338-47.555,47.553-47.555
			c26.217,0,47.555,21.339,47.555,47.555v34.142h-95.107V452.71z M566.136,613.662H398.845v-97.547h167.17v97.547H566.136z"/>
	</g>
</g>
</svg>
