<?xml version="1.0" encoding="utf-8"?>
<!-- Generator: Adobe Illustrator 16.0.0, SVG Export Plug-In . SVG Version: 6.00 Build 0)  -->
<!DOCTYPE svg PUBLIC "-//W3C//DTD SVG 1.1//EN" "http://www.w3.org/Graphics/SVG/1.1/DTD/svg11.dtd">
<svg version="1.1" id="Capa_1" xmlns="http://www.w3.org/2000/svg" xmlns:xlink="http://www.w3.org/1999/xlink" x="0px" y="0px"
	 width="90px" height="90px" viewBox="155 155 90 90" enable-background="new 155 155 90 90" xml:space="preserve">
<g>
	<g>
		<path fill="#00A99D" d="M199.999,160C177.943,160,160,177.945,160,200c0,22.057,17.943,40,39.999,40
			C222.057,240,240,222.057,240,200C240,177.945,222.057,160,199.999,160z M199.999,234.754c-19.163,0-34.753-15.591-34.753-34.754
			s15.59-34.753,34.753-34.753s34.755,15.59,34.755,34.753S219.162,234.754,199.999,234.754z"/>
		<path fill="#00A99D" d="M214.481,186.905l-20.627,20.626l-8.337-8.337c-1.025-1.023-2.685-1.024-3.709,0.001
			c-1.025,1.024-1.025,2.685,0,3.709l10.193,10.191c0.513,0.512,1.183,0.768,1.854,0.768s1.344-0.256,1.856-0.77
			c0.002-0.002,0.003-0.004,0.006-0.006l22.474-22.474c1.024-1.024,1.024-2.686,0-3.71S215.505,185.88,214.481,186.905z"/>
	</g>
</g>
</svg>
